<mxfile host="app.diagrams.net" modified="2020-11-11T10:56:06.964Z" agent="5.0 (X11)" etag="6EsYo9Px2xItvqQGRTt-" version="13.9.2" type="github">
  <diagram id="C5RBs43oDa-KdzZeNtuy" name="Page-1">
    <mxGraphModel dx="1480" dy="767" grid="1" gridSize="10" guides="1" tooltips="1" connect="1" arrows="1" fold="1" page="1" pageScale="1" pageWidth="827" pageHeight="1169" math="0" shadow="0">
      <root>
        <mxCell id="WIyWlLk6GJQsqaUBKTNV-0" />
        <mxCell id="WIyWlLk6GJQsqaUBKTNV-1" parent="WIyWlLk6GJQsqaUBKTNV-0" />
        <mxCell id="gC28j2bzgIrE6u0qwE_t-1" value="&lt;div&gt;&lt;p&gt;&lt;font style=&quot;font-size: 12px&quot;&gt;SPARQL QUERY:&lt;/font&gt;&lt;/p&gt;&lt;/div&gt;&lt;div&gt;&lt;p style=&quot;background-color: rgb(255 , 255 , 255) ; color: rgb(8 , 8 , 8) ; font-family: &amp;#34;jetbrains mono&amp;#34; , monospace&quot;&gt;&lt;font style=&quot;font-size: 12px&quot;&gt;terms with aeon:SMW_datatype&lt;/font&gt;&lt;/p&gt;&lt;/div&gt;" style="rounded=1;whiteSpace=wrap;html=1;fontSize=12;glass=0;strokeWidth=1;shadow=0;align=center;" vertex="1" parent="WIyWlLk6GJQsqaUBKTNV-1">
          <mxGeometry x="355" y="140" width="170" height="70" as="geometry" />
        </mxCell>
        <mxCell id="gC28j2bzgIrE6u0qwE_t-2" value="Wiki+ SMW" style="strokeWidth=2;html=1;shape=mxgraph.flowchart.multi-document;whiteSpace=wrap;align=center;" vertex="1" parent="WIyWlLk6GJQsqaUBKTNV-1">
          <mxGeometry x="620" y="40" width="160" height="60" as="geometry" />
        </mxCell>
        <mxCell id="gC28j2bzgIrE6u0qwE_t-3" value="&lt;div&gt;&lt;br&gt;&lt;/div&gt;&lt;div&gt;ONTOLOGY&lt;/div&gt;&lt;div&gt;(RDF/TTL/JSONLD)&lt;br&gt;&lt;/div&gt;&lt;div&gt;&lt;br&gt;&lt;/div&gt;&lt;div&gt;&lt;br&gt;&lt;/div&gt;" style="strokeWidth=2;html=1;shape=mxgraph.flowchart.document2;whiteSpace=wrap;size=0.25;align=center;" vertex="1" parent="WIyWlLk6GJQsqaUBKTNV-1">
          <mxGeometry x="160" y="40" width="155" height="60" as="geometry" />
        </mxCell>
        <mxCell id="gC28j2bzgIrE6u0qwE_t-4" value="" style="endArrow=classic;html=1;exitX=0.25;exitY=0;exitDx=0;exitDy=0;entryX=1;entryY=0.75;entryDx=0;entryDy=0;entryPerimeter=0;" edge="1" parent="WIyWlLk6GJQsqaUBKTNV-1" source="gC28j2bzgIrE6u0qwE_t-1" target="gC28j2bzgIrE6u0qwE_t-3">
          <mxGeometry width="50" height="50" relative="1" as="geometry">
            <mxPoint x="470" y="220" as="sourcePoint" />
            <mxPoint x="520" y="200" as="targetPoint" />
          </mxGeometry>
        </mxCell>
        <mxCell id="gC28j2bzgIrE6u0qwE_t-6" value="" style="endArrow=classic;html=1;entryX=0.563;entryY=0;entryDx=0;entryDy=0;entryPerimeter=0;" edge="1" parent="WIyWlLk6GJQsqaUBKTNV-1" source="gC28j2bzgIrE6u0qwE_t-3" target="gC28j2bzgIrE6u0qwE_t-7">
          <mxGeometry width="50" height="50" relative="1" as="geometry">
            <mxPoint x="470" y="200" as="sourcePoint" />
            <mxPoint x="288.28125" y="200" as="targetPoint" />
          </mxGeometry>
        </mxCell>
        <mxCell id="gC28j2bzgIrE6u0qwE_t-7" value="Ontology terms&lt;br&gt;(properties, classes)" style="strokeWidth=2;html=1;shape=mxgraph.flowchart.multi-document;whiteSpace=wrap;align=center;" vertex="1" parent="WIyWlLk6GJQsqaUBKTNV-1">
          <mxGeometry x="180" y="240" width="160" height="60" as="geometry" />
        </mxCell>
        <mxCell id="gC28j2bzgIrE6u0qwE_t-11" value="" style="endArrow=classic;html=1;entryX=0;entryY=0.25;entryDx=0;entryDy=0;entryPerimeter=0;exitX=0.5;exitY=0.88;exitDx=0;exitDy=0;exitPerimeter=0;" edge="1" parent="WIyWlLk6GJQsqaUBKTNV-1" source="gC28j2bzgIrE6u0qwE_t-7">
          <mxGeometry width="50" height="50" relative="1" as="geometry">
            <mxPoint x="290" y="310" as="sourcePoint" />
            <mxPoint x="360" y="342.5" as="targetPoint" />
          </mxGeometry>
        </mxCell>
        <mxCell id="gC28j2bzgIrE6u0qwE_t-14" value="" style="endArrow=classic;html=1;exitX=0.5;exitY=0.88;exitDx=0;exitDy=0;exitPerimeter=0;entryX=0;entryY=0.25;entryDx=0;entryDy=0;entryPerimeter=0;" edge="1" parent="WIyWlLk6GJQsqaUBKTNV-1" source="gC28j2bzgIrE6u0qwE_t-7">
          <mxGeometry width="50" height="50" relative="1" as="geometry">
            <mxPoint x="470" y="340" as="sourcePoint" />
            <mxPoint x="360" y="402.5" as="targetPoint" />
          </mxGeometry>
        </mxCell>
        <mxCell id="gC28j2bzgIrE6u0qwE_t-16" value="aeon:AEON_0000006" style="strokeWidth=2;html=1;shape=mxgraph.flowchart.document2;whiteSpace=wrap;size=0.25;align=center;" vertex="1" parent="WIyWlLk6GJQsqaUBKTNV-1">
          <mxGeometry x="800" y="130" width="160" height="50" as="geometry" />
        </mxCell>
        <mxCell id="gC28j2bzgIrE6u0qwE_t-17" value="&lt;div style=&quot;font-size: 11px&quot; align=&quot;center&quot;&gt;&lt;font style=&quot;font-size: 11px&quot;&gt;Property:abstract deadline&lt;/font&gt;&lt;/div&gt;&lt;div style=&quot;font-size: 8px&quot; align=&quot;left&quot;&gt;&lt;font style=&quot;font-size: 8px&quot;&gt;&lt;br&gt;&lt;/font&gt;&lt;/div&gt;&lt;div style=&quot;font-size: 8px&quot; align=&quot;left&quot;&gt;&lt;font style=&quot;font-size: 8px&quot;&gt;Imported from [[Imported from::aeon:abstract_deadline]]&lt;br style=&quot;font-size: 8px&quot;&gt;Equivalent URI [[Equivalent URI::https://github.com/tibonto/aeon#abstract_deadline]]&lt;br style=&quot;font-size: 8px&quot;&gt;&lt;/font&gt;&lt;/div&gt;&lt;div style=&quot;font-size: 8px&quot;&gt;&lt;div style=&quot;font-size: 8px&quot; align=&quot;left&quot;&gt;&lt;font style=&quot;font-size: 8px&quot;&gt;&lt;br&gt;&lt;/font&gt;&lt;/div&gt;&lt;div style=&quot;font-size: 8px&quot; align=&quot;left&quot;&gt;&lt;font style=&quot;font-size: 8px&quot;&gt;Has type [[Has type::Date]]&lt;br style=&quot;font-size: 8px&quot;&gt;&lt;br style=&quot;font-size: 8px&quot;&gt;Domain [[Domain::Category:&lt;/font&gt;&lt;font style=&quot;font-size: 8px&quot;&gt;AEON_0000001]]&lt;br style=&quot;font-size: 8px&quot;&gt;Subcategory of [[Subproperty of::deadline]]&lt;br style=&quot;font-size: 8px&quot;&gt;[[Category:AEON]] [[Category:Imported vocabulary]]&lt;br style=&quot;font-size: 8px&quot;&gt;&lt;/font&gt;&lt;/div&gt;&lt;font style=&quot;font-size: 8px&quot;&gt;&lt;br style=&quot;font-size: 8px&quot;&gt;&lt;br&gt;&lt;/font&gt;&lt;/div&gt;" style="rounded=1;whiteSpace=wrap;html=1;fontSize=8;align=center;shadow=0;sketch=0;glass=0;spacing=6;" vertex="1" parent="WIyWlLk6GJQsqaUBKTNV-1">
          <mxGeometry x="810" y="280" width="220" height="150" as="geometry" />
        </mxCell>
        <mxCell id="gC28j2bzgIrE6u0qwE_t-19" value="&lt;div style=&quot;font-size: 11px&quot; align=&quot;center&quot;&gt;&lt;font style=&quot;font-size: 11px&quot;&gt;Category:&lt;/font&gt;AEON_0000006&lt;/div&gt;&lt;div style=&quot;font-size: 8px&quot; align=&quot;left&quot;&gt;&lt;font style=&quot;font-size: 8px&quot;&gt;&lt;br&gt;&lt;/font&gt;&lt;/div&gt;&lt;div align=&quot;left&quot;&gt;Imported from [[Imported from::aeon:AEON_0000006]]&lt;br&gt;Equivalent URI [[Equivalent URI::https://github.com/tibonto/aeon#AEON_0000006]]&lt;br&gt;&lt;br&gt;Subcategory of [[:Category:AEON_0000005]]&lt;br&gt;&lt;br&gt;[[partOfSubobject::Template:Subobject AEON_0000006]]&lt;/div&gt;&lt;div align=&quot;left&quot;&gt;&lt;br&gt;&lt;/div&gt;&lt;div align=&quot;left&quot;&gt;[[Category:AEON]] [[Category:Imported vocabulary]]&lt;br&gt;&lt;br style=&quot;font-size: 8px&quot;&gt;&lt;/div&gt;&lt;div style=&quot;font-size: 8px&quot; align=&quot;left&quot;&gt;&lt;font style=&quot;font-size: 8px&quot;&gt;&lt;br&gt;&lt;/font&gt;&lt;/div&gt;" style="rounded=1;whiteSpace=wrap;html=1;fontSize=8;align=left;shadow=0;sketch=0;glass=0;spacing=6;" vertex="1" parent="WIyWlLk6GJQsqaUBKTNV-1">
          <mxGeometry x="810" y="470" width="240" height="170" as="geometry" />
        </mxCell>
        <mxCell id="gC28j2bzgIrE6u0qwE_t-21" value="&lt;div align=&quot;center&quot;&gt;&lt;font style=&quot;font-size: 12px&quot;&gt;aeon:abstract_deadline&lt;/font&gt;&lt;/div&gt;&lt;div&gt;&lt;font style=&quot;font-size: 12px&quot;&gt;&lt;br&gt;&lt;/font&gt;&lt;/div&gt;&lt;div&gt;###  https://github.com/tibonto/aeon#abstract_deadline                    &lt;/div&gt;aeon:abstract_deadline rdf:type owl:DatatypeProperty ;                    &lt;br&gt;&amp;nbsp;&amp;nbsp;&amp;nbsp;&amp;nbsp;&amp;nbsp;&amp;nbsp;&amp;nbsp;&amp;nbsp;&amp;nbsp;&amp;nbsp;&amp;nbsp;&amp;nbsp;&amp;nbsp;&amp;nbsp;&amp;nbsp;&amp;nbsp;&amp;nbsp;&amp;nbsp;&amp;nbsp;&amp;nbsp;&amp;nbsp;&amp;nbsp;&amp;nbsp;&amp;nbsp;&amp;nbsp;&amp;nbsp;&amp;nbsp;&amp;nbsp;&amp;nbsp;&amp;nbsp;&amp;nbsp;&amp;nbsp;&amp;nbsp;&amp;nbsp;&amp;nbsp;&amp;nbsp;&amp;nbsp;&amp;nbsp; rdfs:subPropertyOf aeon:deadline ;                    &lt;br&gt;&amp;nbsp;&amp;nbsp;&amp;nbsp;&amp;nbsp;&amp;nbsp;&amp;nbsp;&amp;nbsp;&amp;nbsp;&amp;nbsp;&amp;nbsp;&amp;nbsp;&amp;nbsp;&amp;nbsp;&amp;nbsp;&amp;nbsp;&amp;nbsp;&amp;nbsp;&amp;nbsp;&amp;nbsp;&amp;nbsp;&amp;nbsp;&amp;nbsp;&amp;nbsp;&amp;nbsp;&amp;nbsp;&amp;nbsp;&amp;nbsp;&amp;nbsp;&amp;nbsp;&amp;nbsp;&amp;nbsp;&amp;nbsp;&amp;nbsp;&amp;nbsp;&amp;nbsp;&amp;nbsp;&amp;nbsp;&amp;nbsp; rdfs:domain aeon:AEON_0000001 ;                    &lt;br&gt;&amp;nbsp;&amp;nbsp;&amp;nbsp;&amp;nbsp;&amp;nbsp;&amp;nbsp;&amp;nbsp;&amp;nbsp;&amp;nbsp;&amp;nbsp;&amp;nbsp;&amp;nbsp;&amp;nbsp;&amp;nbsp;&amp;nbsp;&amp;nbsp;&amp;nbsp;&amp;nbsp;&amp;nbsp;&amp;nbsp;&amp;nbsp;&amp;nbsp;&amp;nbsp;&amp;nbsp;&amp;nbsp;&amp;nbsp;&amp;nbsp;&amp;nbsp;&amp;nbsp;&amp;nbsp;&amp;nbsp;&amp;nbsp;&amp;nbsp;&amp;nbsp;&amp;nbsp;&amp;nbsp;&amp;nbsp;&amp;nbsp; rdfs:range xsd:dateTimeStamp ;                    &lt;br&gt;&amp;nbsp;&amp;nbsp;&amp;nbsp;&amp;nbsp;&amp;nbsp;&amp;nbsp;&amp;nbsp;&amp;nbsp;&amp;nbsp;&amp;nbsp;&amp;nbsp;&amp;nbsp;&amp;nbsp;&amp;nbsp;&amp;nbsp;&amp;nbsp;&amp;nbsp;&amp;nbsp;&amp;nbsp;&amp;nbsp;&amp;nbsp;&amp;nbsp;&amp;nbsp;&amp;nbsp;&amp;nbsp;&amp;nbsp;&amp;nbsp;&amp;nbsp;&amp;nbsp;&amp;nbsp;&amp;nbsp;&amp;nbsp;&amp;nbsp;&amp;nbsp;&amp;nbsp;&amp;nbsp;&amp;nbsp;&amp;nbsp; aeon:SMW_datatype &quot;Date&quot; ; &lt;br&gt;&amp;nbsp;&amp;nbsp;&amp;nbsp;&amp;nbsp;&amp;nbsp;&amp;nbsp;&amp;nbsp;&amp;nbsp;&amp;nbsp;&amp;nbsp;&amp;nbsp;&amp;nbsp;&amp;nbsp;&amp;nbsp;&amp;nbsp;&amp;nbsp;&amp;nbsp;&amp;nbsp;&amp;nbsp;&amp;nbsp;&amp;nbsp;&amp;nbsp;&amp;nbsp;&amp;nbsp;&amp;nbsp;&amp;nbsp;&amp;nbsp;&amp;nbsp;&amp;nbsp;&amp;nbsp;&amp;nbsp;&amp;nbsp;&amp;nbsp;&amp;nbsp;&amp;nbsp;&amp;nbsp;&amp;nbsp;&amp;nbsp; aeon:SMW_import_info &quot;[[Category:AEON]] [[Category:Imported vocabulary]]&quot; ." style="rounded=1;fontSize=8;align=left;shadow=0;sketch=0;glass=0;whiteSpace=wrap;html=1;labelPosition=center;verticalLabelPosition=middle;verticalAlign=top;spacing=6;" vertex="1" parent="WIyWlLk6GJQsqaUBKTNV-1">
          <mxGeometry x="380" y="380" width="250" height="130" as="geometry" />
        </mxCell>
        <mxCell id="gC28j2bzgIrE6u0qwE_t-25" value="&lt;div style=&quot;font-size: 12px&quot; align=&quot;center&quot;&gt;aeon:AEON_0000006&lt;/div&gt;&lt;div&gt;&lt;font style=&quot;font-size: 12px&quot;&gt;&lt;br&gt;&lt;/font&gt;&lt;/div&gt;&lt;div&gt;###  https://github.com/tibonto/aeon#AEON_0000006&lt;/div&gt;aeon:AEON_0000006 rdf:type owl:Class ;&lt;br&gt;&amp;nbsp;&amp;nbsp;&amp;nbsp;&amp;nbsp;&amp;nbsp;&amp;nbsp;&amp;nbsp;&amp;nbsp;&amp;nbsp;&amp;nbsp;&amp;nbsp;&amp;nbsp;&amp;nbsp;&amp;nbsp;&amp;nbsp;&amp;nbsp;&amp;nbsp;&amp;nbsp;&amp;nbsp;&amp;nbsp;&amp;nbsp;&amp;nbsp;&amp;nbsp;&amp;nbsp;&amp;nbsp;&amp;nbsp;&amp;nbsp;&amp;nbsp;&amp;nbsp;&amp;nbsp;&amp;nbsp;&amp;nbsp;&amp;nbsp;&amp;nbsp;&amp;nbsp;&amp;nbsp;&amp;nbsp;&amp;nbsp; rdfs:subPropertyOf aeon:AEON_0000005 ;                    &lt;br&gt;&amp;nbsp;&amp;nbsp;&amp;nbsp;&amp;nbsp;&amp;nbsp;&amp;nbsp;&amp;nbsp;&amp;nbsp;&amp;nbsp;&amp;nbsp;&amp;nbsp;&amp;nbsp;&amp;nbsp;&amp;nbsp;&amp;nbsp;&amp;nbsp;&amp;nbsp;&amp;nbsp;&amp;nbsp;&amp;nbsp;&amp;nbsp;&amp;nbsp;&amp;nbsp;&amp;nbsp;&amp;nbsp;&amp;nbsp;&amp;nbsp;&amp;nbsp;&amp;nbsp;&amp;nbsp;&amp;nbsp;&amp;nbsp;&amp;nbsp;&amp;nbsp;&amp;nbsp;&amp;nbsp;&amp;nbsp;&amp;nbsp; rdfs:label &quot;organizer role&quot;@en ;&lt;br&gt;&amp;nbsp;&amp;nbsp;&amp;nbsp;&amp;nbsp;&amp;nbsp;&amp;nbsp;&amp;nbsp;&amp;nbsp;&amp;nbsp;&amp;nbsp;&amp;nbsp;&amp;nbsp;&amp;nbsp;&amp;nbsp;&amp;nbsp;&amp;nbsp;&amp;nbsp;&amp;nbsp;&amp;nbsp;&amp;nbsp;&amp;nbsp;&amp;nbsp;&amp;nbsp;&amp;nbsp;&amp;nbsp;&amp;nbsp;&amp;nbsp;&amp;nbsp;&amp;nbsp;&amp;nbsp;&amp;nbsp;&amp;nbsp;&amp;nbsp;&amp;nbsp;&amp;nbsp;&amp;nbsp;&amp;nbsp;&amp;nbsp; rdfs:range xsd:dateTimeStamp ;                    &lt;br&gt;&amp;nbsp;&amp;nbsp;&amp;nbsp;&amp;nbsp;&amp;nbsp;&amp;nbsp;&amp;nbsp;&amp;nbsp;&amp;nbsp;&amp;nbsp;&amp;nbsp;&amp;nbsp;&amp;nbsp;&amp;nbsp;&amp;nbsp;&amp;nbsp;&amp;nbsp;&amp;nbsp;&amp;nbsp;&amp;nbsp;&amp;nbsp;&amp;nbsp;&amp;nbsp;&amp;nbsp;&amp;nbsp;&amp;nbsp;&amp;nbsp;&amp;nbsp;&amp;nbsp;&amp;nbsp;&amp;nbsp;&amp;nbsp;&amp;nbsp;&amp;nbsp;&amp;nbsp;&amp;nbsp;&amp;nbsp;&amp;nbsp; aeon:SMW_datatype &quot;Category&quot; ; &lt;br&gt;&lt;div&gt;&amp;nbsp;&amp;nbsp;&amp;nbsp;&amp;nbsp;&amp;nbsp;&amp;nbsp;&amp;nbsp;&amp;nbsp;&amp;nbsp;&amp;nbsp;&amp;nbsp;&amp;nbsp;&amp;nbsp;&amp;nbsp;&amp;nbsp;&amp;nbsp;&amp;nbsp;&amp;nbsp;&amp;nbsp;&amp;nbsp;&amp;nbsp;&amp;nbsp;&amp;nbsp;&amp;nbsp;&amp;nbsp;&amp;nbsp;&amp;nbsp;&amp;nbsp;&amp;nbsp;&amp;nbsp;&amp;nbsp;&amp;nbsp;&amp;nbsp;&amp;nbsp;&amp;nbsp;&amp;nbsp;&amp;nbsp;&amp;nbsp; aeon:SMW_import_info&amp;nbsp;&quot;&lt;/div&gt;&lt;div&gt;&lt;span class=&quot;pl-s&quot;&gt;[[partOfSubobject::Template:Subobject Organizer]]&lt;/span&gt;[[Category:AEON]] [[Category:Imported vocabulary]]&quot; .&lt;/div&gt;" style="rounded=1;fontSize=8;align=left;shadow=0;sketch=0;glass=0;whiteSpace=wrap;html=1;labelPosition=center;verticalLabelPosition=middle;verticalAlign=top;spacing=6;" vertex="1" parent="WIyWlLk6GJQsqaUBKTNV-1">
          <mxGeometry x="380" y="550" width="250" height="130" as="geometry" />
        </mxCell>
      </root>
    </mxGraphModel>
  </diagram>
</mxfile>
